name C:\Users\r0593348\3dpredictsim\Results\MidTarsalJoint\Fal_s1_bCst_PF_Natali2010_ls150_MT_k1000_d020_MTP_T5_ig24.mot
datacolumns 128
datarows 4
range 1.67489604 1.70839396
endheader
time	pelvis_tilt	pelvis_list	pelvis_rotation	pelvis_tx	pelvis_ty	pelvis_tz	hip_flexion_l	hip_adduction_l	hip_rotation_l	hip_flexion_r	hip_adduction_r	hip_rotation_r	knee_angle_l	knee_angle_r	ankle_angle_l	ankle_angle_r	subtalar_angle_l	subtalar_angle_r	mtj_angle_l	mtj_angle_r	mtp_angle_l	mtp_angle_r	lumbar_extension	lumbar_bending	lumbar_rotation	arm_flex_l	arm_add_l	arm_rot_l	arm_flex_r	arm_add_r	arm_rot_r	elbow_flex_l	elbow_flex_r	pro_sup_l	pro_sup_r	glut_med1_l/activation	glut_med2_l/activation	glut_med3_l/activation	glut_min1_l/activation	glut_min2_l/activation	glut_min3_l/activation	semimem_l/activation	semiten_l/activation	bifemlh_l/activation	bifemsh_l/activation	sar_l/activation	add_long_l/activation	add_brev_l/activation	add_mag1_l/activation	add_mag2_l/activation	add_mag3_l/activation	tfl_l/activation	pect_l/activation	grac_l/activation	glut_max1_l/activation	glut_max2_l/activation	glut_max3_l/activation	iliacus_l/activation	psoas_l/activation	quad_fem_l/activation	gem_l/activation	peri_l/activation	rect_fem_l/activation	vas_med_l/activation	vas_int_l/activation	vas_lat_l/activation	med_gas_l/activation	lat_gas_l/activation	soleus_l/activation	tib_post_l/activation	flex_dig_l/activation	flex_hal_l/activation	tib_ant_l/activation	per_brev_l/activation	per_long_l/activation	per_tert_l/activation	ext_dig_l/activation	ext_hal_l/activation	ercspn_l/activation	intobl_l/activation	extobl_l/activation	glut_med1_r/activation	glut_med2_r/activation	glut_med3_r/activation	glut_min1_r/activation	glut_min2_r/activation	glut_min3_r/activation	semimem_r/activation	semiten_r/activation	bifemlh_r/activation	bifemsh_r/activation	sar_r/activation	add_long_r/activation	add_brev_r/activation	add_mag1_r/activation	add_mag2_r/activation	add_mag3_r/activation	tfl_r/activation	pect_r/activation	grac_r/activation	glut_max1_r/activation	glut_max2_r/activation	glut_max3_r/activation	iliacus_r/activation	psoas_r/activation	quad_fem_r/activation	gem_r/activation	peri_r/activation	rect_fem_r/activation	vas_med_r/activation	vas_int_r/activation	vas_lat_r/activation	med_gas_r/activation	lat_gas_r/activation	soleus_r/activation	tib_post_r/activation	flex_dig_r/activation	flex_hal_r/activation	tib_ant_r/activation	per_brev_r/activation	per_long_r/activation	per_tert_r/activation	ext_dig_r/activation	ext_hal_r/activation	ercspn_r/activation	intobl_r/activation	extobl_r/activation	
          1.67489604	         -2.92888430	          2.01289930	         -4.75666758	          2.09362005	          0.92052770	          0.00172377	         29.91813192	          3.18452852	         -2.12062267	        -17.38508802	         -0.84651742	          6.54803621	        -12.81721834	         -5.23465647	          6.22185920	         -0.11209512	         -4.10388723	          7.68984450	         -0.01416160	          1.83341115	         -0.88937425	         16.86964421	         -2.24901760	         -0.14074435	          1.90567936	         -4.16240496	        -13.46623598	          6.29393971	          4.98710496	        -13.45038911	         15.62622665	         17.57776191	         32.87005190	         86.51662706	         86.51662706	          0.07034025	          0.05000127	          0.05930463	          0.05000062	          0.05000068	          0.05000430	          0.10092417	          0.05931651	          0.21970627	          0.05000147	          0.05000087	          0.13081503	          0.16870862	          0.15693473	          0.14291700	          0.11221606	          0.05317196	          0.05001759	          0.08907238	          0.05930534	          0.08748923	          0.09950729	          0.05000009	          0.05000023	          0.17400625	          0.05000029	          0.05000120	          0.05000011	          0.05000206	          0.05000895	          0.05000084	          0.05000006	          0.05000014	          0.05000002	          0.05930471	          0.05000322	          0.05503987	          0.44691730	          0.26667974	          0.20001684	          0.08096776	          0.42366143	          0.14725800	          0.07034162	          0.13004329	          0.12114413	          0.31798907	          0.11737667	          0.08343830	          0.35569520	          0.23187085	          0.12788319	          0.05000071	          0.05000021	          0.05000017	          0.07348428	          0.11758611	          0.05000009	          0.05000007	          0.05000012	          0.05000035	          0.05000031	          0.35934649	          0.05000040	          0.05000036	          0.05002485	          0.05000315	          0.05000067	          0.43818552	          0.64775011	          0.05000022	          0.05000337	          0.06396126	          0.25955411	          0.05000028	          0.05000029	          0.05000028	          0.33685403	          0.46192575	          0.32477957	          0.29177139	          0.31030532	          0.38236554	          0.05000004	          0.05646882	          0.12562586	          0.05000021	          0.05000006	          0.05000022	          0.05000000	          0.05000001	          0.05000001	
          1.68606201	         -2.93003370	          2.10497882	         -5.06223100	          2.11006430	          0.91947946	          0.00153004	         29.37053840	          3.53060565	         -1.92808398	        -17.34806009	         -1.14339824	          6.34277317	        -12.34717481	         -6.97411970	          5.86997176	         -0.66740784	         -4.49921982	          8.62246483	         -0.00741966	          1.55387651	         -0.88503852	         18.09887951	         -2.07961173	         -0.34137039	          1.97737111	         -4.96999086	        -13.46741788	          5.99402017	          4.78989047	        -13.45677053	         16.01419578	         17.13893101	         34.02667081	         86.51662706	         86.51662706	          0.05930395	          0.05930453	          0.05000019	          0.05930498	          0.05930495	          0.05000373	          0.09728486	          0.05000982	          0.21088452	          0.05000018	          0.05000043	          0.13308532	          0.30669475	          0.15430260	          0.15136807	          0.11364763	          0.05000012	          0.08214892	          0.07509786	          0.05000058	          0.13281964	          0.15627523	          0.05292473	          0.05000035	          0.15927339	          0.24766022	          0.12929403	          0.06000167	          0.14962913	          0.14676298	          0.13172623	          0.05000020	          0.05000026	          0.05106258	          0.05000002	          0.05000037	          0.05000017	          0.57186715	          0.26930775	          0.16863426	          0.28146013	          0.48931263	          0.23754114	          0.05930500	          0.10963945	          0.10213657	          0.26809683	          0.09896023	          0.07034682	          0.29988659	          0.19549027	          0.10781830	          0.05000082	          0.05000024	          0.05000017	          0.06195459	          0.09913697	          0.11001941	          0.05048360	          0.05000242	          0.05000325	          0.05000079	          0.30296503	          0.09620715	          0.05000609	          0.05000591	          0.05000351	          0.05000303	          0.38457337	          0.61849850	          0.05001605	          0.05000110	          0.05392577	          0.21883032	          0.05655952	          0.05007364	          0.05003149	          0.28400149	          0.38944948	          0.30412780	          0.28792149	          0.28449835	          0.37364206	          0.05000003	          0.05864789	          0.12526595	          0.05000020	          0.05000005	          0.05000020	          0.05000003	          0.05000013	          0.05000008	
          1.69722799	         -2.92646000	          2.19503911	         -5.34363725	          2.12686972	          0.91847386	          0.00133045	         28.72273620	          3.85638537	         -1.68655638	        -17.21521547	         -1.43704124	          6.13553859	        -12.48977925	         -8.89108090	          5.26184476	         -1.35652439	         -4.87589211	          9.54157327	         -0.00239868	          1.21512929	         -0.87272313	         19.31834012	         -1.88318924	         -0.54908976	          2.04167977	         -5.82471903	        -13.46984964	          5.72499262	          4.50918269	        -13.46555323	         16.33437764	         16.76862707	         35.16570545	         86.51662706	         86.51662706	          0.05000001	          0.05000004	          0.10905770	          0.05000004	          0.05000005	          0.05000008	          0.08202091	          0.05000021	          0.17779669	          0.05000013	          0.05000187	          0.11220431	          0.25857447	          0.31049410	          0.21492434	          0.13023206	          0.05000062	          0.06926172	          0.11975148	          0.07869848	          0.11800632	          0.13175573	          0.05000006	          0.05000074	          0.37990294	          0.20880225	          0.10900777	          0.05930599	          0.15059349	          0.15311405	          0.13004983	          0.05000023	          0.05930661	          0.05000002	          0.06116547	          0.05000409	          0.05930546	          0.48214115	          0.29090535	          0.20581603	          0.23729902	          0.45048864	          0.20027088	          0.05000002	          0.09243698	          0.08611130	          0.22603237	          0.08343335	          0.05930939	          0.25283441	          0.16481780	          0.09090159	          0.05000226	          0.05000043	          0.05000050	          0.05223394	          0.08358248	          0.19635789	          0.06250961	          0.05934017	          0.05929606	          0.05930533	          0.25542979	          0.09482513	          0.05000290	          0.05000195	          0.05000137	          0.05000172	          0.32423371	          0.57196175	          0.05000033	          0.05002527	          0.05930488	          0.18449614	          0.12775368	          0.15187915	          0.14590828	          0.23944153	          0.32834470	          0.25641002	          0.24669180	          0.23986086	          0.31501804	          0.05000002	          0.05000009	          0.13466304	          0.05000008	          0.05000002	          0.05000012	          0.05762985	          0.05930535	          0.05554219	
          1.70839396	         -2.91906808	          2.28772955	         -5.59660808	          2.14393660	          0.91751743	          0.00114324	         27.95629278	          4.10868066	         -1.42479701	        -17.00577197	         -1.72890291	          5.91965998	        -12.95996093	        -10.92786853	          4.77467549	         -2.21456825	         -5.27122602	         10.41488884	         -0.07452118	          0.83392983	         -0.92384015	         20.45325636	         -1.66892430	         -0.76708411	          2.09488189	         -6.70052375	        -13.47828858	          5.51095578	          4.15956847	        -13.47251078	         16.58885096	         16.44331172	         36.28208498	         86.51662706	         86.51662706	          0.23651344	          0.23480834	          0.29505037	          0.35071963	          0.21543159	          0.19751068	          0.08301610	          0.05000204	          0.15183578	          0.07394345	          0.05000244	          0.09459945	          0.21800409	          0.26177752	          0.18120274	          0.12238892	          0.05000037	          0.05930500	          0.10096315	          0.14315157	          0.14185314	          0.11108334	          0.05860338	          0.05000060	          0.32029605	          0.17604119	          0.22546346	          0.05000088	          0.12696538	          0.12909047	          0.10964501	          0.05000096	          0.05000166	          0.05316705	          0.05156863	          0.05000032	          0.05000071	          0.57037608	          0.34167255	          0.17352516	          0.34866608	          0.52530640	          0.19658915	          0.06432807	          0.11167121	          0.07260040	          0.33320634	          0.07034264	          0.05000376	          0.31358241	          0.13895788	          0.07663913	          0.05000114	          0.05000018	          0.05000015	          0.05000014	          0.07046855	          0.16554942	          0.06059624	          0.05002993	          0.05000128	          0.05000080	          0.21553405	          0.07995062	          0.05000105	          0.05000220	          0.05000129	          0.05000087	          0.27336138	          0.53663698	          0.05000023	          0.05000050	          0.05000016	          0.15554866	          0.10770929	          0.12804947	          0.12301539	          0.20187305	          0.27682728	          0.21617918	          0.20798581	          0.20222672	          0.26559169	          0.05000001	          0.09652930	          0.15470814	          0.05000009	          0.05000003	          0.05000010	          0.05294424	          0.05000032	          0.05000003	
